<svg xmlns="http://www.w3.org/2000/svg" width="59.732" height="62" viewBox="0 0 59.732 62">
  <path id="Icon_simple-ubisoft" data-name="Icon simple-ubisoft" d="M60.389,30.97c-.672-31.756-42.9-43.6-59.172-13.833.728.532,1.708,1.232,2.436,1.736A30.348,30.348,0,0,0,1.132,26.8a30.7,30.7,0,0,0-.475,5.35,29.866,29.866,0,0,0,59.732,0V30.973ZM8.024,36.289a18.368,18.368,0,0,0-.139,4.621l-.728.253A17.135,17.135,0,0,1,5.9,36.235,18.521,18.521,0,0,1,21.661,16.352c9.158-1.343,17.923,4.34,19.966,12.294L40.9,28.9A23.193,23.193,0,0,0,38.91,26.63C27.848,15.569,10.486,20.637,8.022,36.292Zm28.423,5.378A8.148,8.148,0,1,1,29.166,28.9a6.611,6.611,0,0,1,5.068,11.229c.757.532,1.485,1.036,2.211,1.54Zm17,.307A23.986,23.986,0,0,1,30.791,56.733c-18.173-.9-23.466-21.87-11.315-29.431l.532.532a11.892,11.892,0,0,0-2.043,3.053A14.127,14.127,0,0,0,16.4,37.945c.953,14.647,21.48,17.644,28.535,3.136C53.921,21.226,30.062,1.036,8.89,16.465l-.475-.475C13.987,7.254,24.88,3.361,35.27,5.965A26.443,26.443,0,0,1,53.443,41.978Z" transform="translate(-0.657 0)" fill="#000745"/>
</svg>
