<svg xmlns="http://www.w3.org/2000/svg" width="21.436" height="17.882" viewBox="0 0 21.436 17.882">
  <path id="Icon_awesome-cart-plus" data-name="Icon awesome-cart-plus" d="M18.783,11.176H7.874l.244,1.118h9.989a.853.853,0,0,1,.871,1.024l-.205.848a1.95,1.95,0,0,1,1.175,1.76,2.09,2.09,0,0,1-4.167.054,1.89,1.89,0,0,1,.625-1.451H8.6a1.893,1.893,0,0,1,.626,1.4A2.03,2.03,0,0,1,7.046,17.88a2.03,2.03,0,0,1-1.982-1.848,1.93,1.93,0,0,1,1.044-1.8L3.494,2.235H.893A.867.867,0,0,1,0,1.4V.838A.867.867,0,0,1,.893,0H4.709a.881.881,0,0,1,.875.67l.341,1.565H20.542a.853.853,0,0,1,.871,1.024l-1.759,7.265A.883.883,0,0,1,18.783,11.176Zm-3.6-5.309H13.4V4.47a.578.578,0,0,0-.6-.559h-.6a.578.578,0,0,0-.6.559v1.4H9.825a.578.578,0,0,0-.6.559v.559a.578.578,0,0,0,.6.559h1.786v1.4a.578.578,0,0,0,.6.559h.6a.578.578,0,0,0,.6-.559v-1.4h1.786a.578.578,0,0,0,.6-.559V6.426A.578.578,0,0,0,15.183,5.868Z" fill="#35b9c6"/>
</svg>
