<svg xmlns="http://www.w3.org/2000/svg" width="70.822" height="96.887" viewBox="0 0 70.822 96.887">
  <path id="Icon_awesome-java" data-name="Icon awesome-java" d="M51.035,57.877a29.9,29.9,0,0,1,4.328-2.312S48.2,56.86,41.083,57.452c-8.712.721-18.072.869-22.77.24-11.117-1.48,6.1-5.568,6.1-5.568A32.76,32.76,0,0,0,9.509,55.639C-.2,60.337,33.555,62.483,51.035,57.877Zm-15.8-5.938c-3.514-7.9-15.371-14.835,0-26.969C54.412,9.84,44.579,0,44.579,0,48.556,15.63,30.6,20.365,24.1,30.076c-4.421,6.64,2.164,13.762,11.135,21.863Zm21.2-32.592c.018,0-32.407,8.1-16.925,25.933,4.569,5.253-1.2,9.988-1.2,9.988s11.6-5.993,6.27-13.484C39.6,34.793,35.793,31.315,56.436,19.348ZM55.307,69.382a2.255,2.255,0,0,1-.37.481c23.732-6.233,15-21.993,3.662-18a3.206,3.206,0,0,0-1.517,1.165,13.032,13.032,0,0,1,2.035-.555c5.734-1.2,13.965,7.676-3.81,16.906Zm8.723,11.524s2.682,2.2-2.941,3.921c-10.71,3.237-44.541,4.217-53.937.129-3.385-1.461,2.96-3.514,4.957-3.94a13.42,13.42,0,0,1,3.274-.37C11.629,78-8.9,85.844,4.951,88.082,42.729,94.223,73.834,85.326,64.031,80.906ZM22.679,73.248c-14.557,4.069,8.86,12.467,27.394,4.532a34.385,34.385,0,0,1-5.216-2.553c-8.268,1.572-12.1,1.683-19.607.832-6.2-.7-2.571-2.812-2.571-2.812ZM55.936,91.227c-14.557,2.738-32.518,2.423-43.153.666,0-.019,2.183,1.794,13.392,2.516,17.054,1.091,43.246-.61,43.856-8.675,0,0-1.184,3.052-14.095,5.494ZM47.872,65.294c-10.95,2.109-17.295,2.053-25.3,1.221-6.2-.647-2.146-3.644-2.146-3.644C4.367,68.2,29.338,74.228,51.774,67.662a11.167,11.167,0,0,1-3.9-2.368Z" transform="translate(0.292 1.642)" fill="#000745" stroke="#000745" stroke-width="1"/>
</svg>
