<svg width="36" height="36" viewBox="0 0 36 36" fill="none" xmlns="http://www.w3.org/2000/svg">
<path d="M18 3C9.8685 3 3 9.8685 3 18C3 26.1315 9.8685 33 18 33C26.1315 33 33 26.1315 33 18C33 9.8685 26.1315 3 18 3ZM18 10.5C20.5905 10.5 22.5 12.408 22.5 15C22.5 17.592 20.5905 19.5 18 19.5C15.411 19.5 13.5 17.592 13.5 15C13.5 12.408 15.411 10.5 18 10.5ZM10.341 25.158C11.6865 23.178 13.9305 21.858 16.5 21.858H19.5C22.071 21.858 24.3135 23.178 25.659 25.158C23.742 27.21 21.0225 28.5 18 28.5C14.9775 28.5 12.258 27.21 10.341 25.158Z" fill="white"/>
</svg>
