<svg xmlns="http://www.w3.org/2000/svg" width="62" height="62" viewBox="0 0 62 62">
  <path id="Icon_awesome-python" data-name="Icon awesome-python" d="M60.863,25.569c-1.066-4.276-3.086-7.5-7.39-7.5H47.924v6.56A9.492,9.492,0,0,1,38.68,34.01H23.9a7.542,7.542,0,0,0-7.39,7.514V55.613c0,4.013,3.487,6.366,7.39,7.515a24.869,24.869,0,0,0,14.78,0c3.723-1.079,7.39-3.252,7.39-7.514V49.98H31.3V48.1h22.17c4.3,0,5.9-3,7.39-7.5,1.55-4.636,1.481-9.092,0-15.029ZM39.607,53.731a2.816,2.816,0,1,1-2.782,2.809A2.8,2.8,0,0,1,39.607,53.731ZM23.222,32.156H38a7.451,7.451,0,0,0,7.39-7.514V10.54c0-4.013-3.377-7.016-7.39-7.694a45.617,45.617,0,0,0-14.78.014c-6.255,1.107-7.39,3.418-7.39,7.694v5.632H30.625v1.882H10.282a9.239,9.239,0,0,0-9.244,7.5,27.717,27.717,0,0,0,0,15.029c1.052,4.373,3.557,7.5,7.86,7.5h5.079V41.345A9.4,9.4,0,0,1,23.222,32.156Zm-.927-19.734a2.816,2.816,0,1,1,2.782-2.809,2.8,2.8,0,0,1-2.782,2.809Z" transform="translate(0 -2.25)" fill="#000745"/>
</svg>
