<svg xmlns="http://www.w3.org/2000/svg" width="20.609" height="19.793" viewBox="0 0 20.609 19.793">
  <path id="Icon_material-account-box" data-name="Icon material-account-box" d="M4.5,6.7V22.094a2.245,2.245,0,0,0,2.29,2.2H22.819a2.253,2.253,0,0,0,2.29-2.2V6.7a2.253,2.253,0,0,0-2.29-2.2H6.79A2.245,2.245,0,0,0,4.5,6.7Zm13.739,4.4a3.438,3.438,0,0,1-6.87,0,3.438,3.438,0,0,1,6.87,0Zm-10.3,8.8c0-2.2,4.58-3.409,6.87-3.409s6.87,1.21,6.87,3.409v1.1H7.935Z" transform="translate(-4.5 -4.5)" fill="#ffffff"/>
</svg>
